<svg width="266" height="215" viewBox="0 0 266 215" fill="none" xmlns="http://www.w3.org/2000/svg">
<path d="M228.53 95.1801H222.64C222.64 46.0601 182.68 6.10999 133.57 6.10999C84.45 6.10999 44.5 46.0701 44.5 95.1801H38.61C38.61 42.8201 81.21 0.219971 133.57 0.219971C185.93 0.219971 228.53 42.8201 228.53 95.1801Z" fill="#1A1A1A"/>
<path d="M231.5 89.13H210.45V159.35H231.5V89.13Z" fill="#1A1A1A"/>
<path d="M265.41 124.24C265.41 140.43 255.13 154.2 240.72 159.39V89.1C255.13 94.28 265.41 108.06 265.41 124.24Z" fill="#1A1A1A"/>
<path d="M55.6199 89.13H34.5699V159.35H55.6199V89.13Z" fill="#1A1A1A"/>
<path d="M0.659973 124.24C0.659973 140.43 10.94 154.2 25.35 159.39V89.1C10.94 94.28 0.659973 108.06 0.659973 124.24Z" fill="#1A1A1A"/>
<path d="M133.17 204.87L145.67 203.12V209.06L133.98 210.7L133.17 204.87Z" fill="#1A1A1A"/>
<path d="M228.29 150.84C227.02 153.75 225.61 156.59 224.05 159.35C217.53 170.98 208.65 181.21 197.99 189.28C184.81 199.28 169.18 205.77 152.8 208.06L149.87 208.47V202.53L151.98 202.24C179.04 198.46 203.1 182.41 217.22 159.36C219.35 155.89 221.25 152.26 222.9 148.5L228.29 150.84Z" fill="#1A1A1A"/>
<path d="M145.67 199.48H127.64V214.41H145.67V199.48Z" fill="#1A1A1A"/>
<path d="M102.15 115.69C106.773 115.69 110.52 111.943 110.52 107.32C110.52 102.697 106.773 98.95 102.15 98.95C97.5273 98.95 93.78 102.697 93.78 107.32C93.78 111.943 97.5273 115.69 102.15 115.69Z" fill="#1A1A1A"/>
<path d="M135.11 115.69C139.733 115.69 143.48 111.943 143.48 107.32C143.48 102.697 139.733 98.95 135.11 98.95C130.487 98.95 126.74 102.697 126.74 107.32C126.74 111.943 130.487 115.69 135.11 115.69Z" fill="#1A1A1A"/>
<path d="M163.91 115.69C168.533 115.69 172.28 111.943 172.28 107.32C172.28 102.697 168.533 98.95 163.91 98.95C159.287 98.95 155.54 102.697 155.54 107.32C155.54 111.943 159.287 115.69 163.91 115.69Z" fill="#1A1A1A"/>
</svg>
