<svg width="220" height="216" viewBox="0 0 220 216" fill="none" xmlns="http://www.w3.org/2000/svg">
<path d="M0.73999 0.960022L70.53 154.97L115.7 125.3L146.11 132.75L152.47 86.7L184.58 54.5L0.73999 0.960022ZM31.31 25.1L138.61 82.38L137.22 114.81L31.31 25.1Z" fill="#1A1A1A"/>
<path d="M157.46 144.09C162.78 149.36 167.72 154.93 172.54 160.59C177.34 166.26 182 172.04 186.52 177.93C191.04 183.81 195.43 189.8 199.67 195.91C203.89 202.03 208 208.23 211.71 214.74C206.38 209.47 201.45 203.91 196.63 198.25C191.83 192.58 187.17 186.8 182.65 180.91C178.13 175.02 173.74 169.03 169.51 162.93C165.28 156.79 161.18 150.59 157.46 144.09Z" fill="#1A1A1A"/>
<path d="M111.48 145.09C116.8 150.36 121.74 155.93 126.56 161.59C131.36 167.26 136.02 173.04 140.54 178.93C145.06 184.81 149.45 190.8 153.69 196.91C157.91 203.03 162.02 209.23 165.73 215.74C160.4 210.47 155.47 204.91 150.65 199.25C145.85 193.58 141.19 187.8 136.67 181.91C132.15 176.02 127.76 170.03 123.52 163.93C119.31 157.79 115.2 151.59 111.48 145.09Z" fill="#1A1A1A"/>
<path d="M165.29 86.76C170.61 92.03 175.55 97.6 180.37 103.26C185.17 108.93 189.83 114.71 194.35 120.6C198.87 126.48 203.26 132.47 207.5 138.58C211.72 144.7 215.83 150.9 219.54 157.41C214.21 152.14 209.28 146.58 204.46 140.92C199.66 135.25 195 129.47 190.49 123.58C185.97 117.69 181.58 111.7 177.34 105.6C173.12 99.46 169.01 93.26 165.29 86.76Z" fill="#1A1A1A"/>
</svg>
